<svg width="24" height="21" viewBox="0 0 24 21" fill="none" xmlns="http://www.w3.org/2000/svg">
<path d="M0.857151 3.85718C0.607146 3.85718 0.401791 3.77682 0.241072 3.61611C0.0803527 3.45539 0 3.25003 0 3.00003V0.857151C0 0.607146 0.0803573 0.401791 0.241072 0.241072C0.401787 0.0803527 0.607146 0 0.857151 0H23.1428C23.3929 0 23.5982 0.0803573 23.7589 0.241072C23.9196 0.401787 24 0.607146 24 0.857151V3.00003C24 3.25003 23.9196 3.45539 23.7589 3.61611C23.5982 3.77683 23.3929 3.85718 23.1428 3.85718H0.857151ZM0.857151 12.4287C0.607146 12.4287 0.401791 12.3483 0.241072 12.1876C0.0803527 12.0269 0 11.8215 0 11.5715V9.42866C0 9.17865 0.0803573 8.9733 0.241072 8.81258C0.401787 8.65186 0.607146 8.57151 0.857151 8.57151H23.1428C23.3929 8.57151 23.5982 8.65187 23.7589 8.81258C23.9196 8.97329 24 9.17865 24 9.42866V11.5715C24 11.8215 23.9196 12.0269 23.7589 12.1876C23.5982 12.3483 23.3929 12.4287 23.1428 12.4287H0.857151ZM0.857151 21.0002C0.607146 21.0002 0.401791 20.9198 0.241072 20.7591C0.0803527 20.5984 0 20.393 0 20.143V18.0002C0 17.7502 0.0803573 17.5448 0.241072 17.3841C0.401787 17.2234 0.607146 17.143 0.857151 17.143H23.1428C23.3929 17.143 23.5982 17.2234 23.7589 17.3841C23.9196 17.5448 24 17.7502 24 18.0002V20.143C24 20.393 23.9196 20.5984 23.7589 20.7591C23.5982 20.9198 23.3929 21.0002 23.1428 21.0002H0.857151Z" fill="white"/>
</svg>
