<svg width="25" height="19" viewBox="0 0 25 19" fill="none" xmlns="http://www.w3.org/2000/svg">
<path d="M24.6841 15.6641C24.7935 15.7734 24.8481 15.9063 24.8481 16.0625V17.9375C24.8481 18.0937 24.7935 18.2266 24.6841 18.3359C24.5747 18.4453 24.4419 18.5 24.2856 18.5H1.41064C1.2544 18.5 1.12158 18.4453 1.01221 18.3359C0.902837 18.2266 0.848145 18.0937 0.848145 17.9375V1.0625C0.848145 0.906252 0.902833 0.773436 1.01221 0.664064C1.12158 0.554692 1.2544 0.5 1.41064 0.5H3.28564C3.44189 0.5 3.57471 0.554688 3.68408 0.664064C3.79345 0.77344 3.84814 0.906252 3.84814 1.0625V15.5H24.2856C24.4419 15.5 24.5747 15.5547 24.6841 15.6641ZM16.9731 2C16.6606 2 16.395 2.10938 16.1763 2.32812C15.9575 2.54687 15.8481 2.8125 15.8481 3.125C15.8481 3.4375 15.9575 3.70312 16.1763 3.92188L17.7231 5.46875L14.3481 8.89063L11.7231 6.26563C11.6294 6.17188 11.5044 6.125 11.3481 6.125C11.1919 6.125 11.0513 6.17188 10.9263 6.26563L5.34814 11.7969C5.25439 11.8906 5.20752 12.0156 5.20752 12.1719C5.20752 12.3281 5.2544 12.4688 5.34814 12.5938L6.70752 13.9531C6.80127 14.0781 6.92627 14.1406 7.08252 14.1406C7.23877 14.1406 7.3794 14.0781 7.5044 13.9531L11.3481 10.1094L13.9263 12.7344C14.0513 12.8281 14.1919 12.875 14.3481 12.875C14.5044 12.875 14.6294 12.8281 14.7231 12.7344L19.8794 7.625L21.4263 9.17188C21.645 9.39063 21.9106 9.5 22.2231 9.5C22.5356 9.5 22.8013 9.39062 23.02 9.17188C23.2388 8.95313 23.3481 8.6875 23.3481 8.375V3.125C23.3481 2.8125 23.2388 2.54688 23.02 2.32812C22.8013 2.10937 22.5356 2 22.2231 2H16.9731H16.9731Z" fill="white"/>
</svg>
