<svg width="67" height="23" viewBox="0 0 67 23" fill="none" xmlns="http://www.w3.org/2000/svg">
<path d="M20.841 11.4383C20.841 18.3595 15.4228 22.4141 8.32377 22.4141H0V0.585792H8.07153C15.4533 0.585792 20.841 3.97032 20.841 11.4383ZM15.2287 11.4383C15.2287 7.10085 12.2884 5.08714 7.9454 5.08714H5.26542V17.8512H7.81929C12.2902 17.8512 15.2287 15.7973 15.2287 11.4383Z" fill="black"/>
<path d="M46.1091 11.4075C46.1091 18.414 40.8963 23 33.9387 23C26.8095 23 21.7998 18.2527 21.7998 11.4075C21.7998 4.50195 26.8558 0 33.9387 0C41.0041 0 46.1091 4.48805 46.1091 11.4075ZM40.3392 11.4075C40.3392 7.46814 37.5467 4.74798 33.9387 4.74798C30.5548 4.74798 27.5697 7.19284 27.5697 11.4075C27.5697 15.1578 29.9677 18.1903 33.9387 18.1903C37.6638 18.1903 40.3392 15.3962 40.3392 11.4075Z" fill="black"/>
<path d="M67 14.1823C67 19.7074 62.8927 23 57.3835 23C51.7611 23 47.8616 19.6639 47.8616 14.1823V0.585792H53.2216V13.7507C53.2216 16.3833 54.6001 18.252 57.415 18.252C60.1657 18.252 61.6085 16.478 61.6085 13.7507V0.585792H67V14.1823Z" fill="black"/>
</svg>
