<svg width="18" height="17" viewBox="0 0 18 17" fill="none" xmlns="http://www.w3.org/2000/svg">
<path d="M12.5938 3.09375C12.5312 3.03125 12.4375 3 12.375 3C12.2812 3 12.2188 3.03125 12.1562 3.09375L5.3125 9.9375L5 12.8125C4.96875 13.0312 5.03125 13.2188 5.15625 13.3438C5.28125 13.4688 5.46875 13.5312 5.6875 13.5L8.5625 13.1875L15.4062 6.34375C15.4688 6.28125 15.5 6.21875 15.5 6.125C15.5 6.0625 15.4688 5.96875 15.4062 5.90625L12.5938 3.09375ZM17.6562 2.375C17.875 2.625 18 2.9375 18 3.25C18 3.59375 17.875 3.875 17.6562 4.09375L16.5312 5.21875C16.4688 5.28125 16.375 5.3125 16.3125 5.3125C16.2188 5.3125 16.1562 5.28125 16.0938 5.21875L13.2812 2.40625C13.2188 2.34375 13.1875 2.28125 13.1875 2.1875C13.1875 2.125 13.2188 2.03125 13.2812 1.96875L14.4062 0.84375C14.625 0.625 14.9062 0.5 15.25 0.5C15.5625 0.5 15.875 0.625 16.125 0.84375L17.6562 2.375ZM12 11.3125C12 11.2188 12.0312 11.125 12.125 11.0625L13.375 9.8125C13.4688 9.6875 13.5938 9.65625 13.75 9.71875C13.9062 9.78125 14 9.90625 14 10.0625V15C14 15.4375 13.8438 15.7812 13.5625 16.0625C13.25 16.375 12.9062 16.5 12.5 16.5H1.5C1.0625 16.5 0.71875 16.375 0.4375 16.0625C0.125 15.7812 0 15.4375 0 15V4C0 3.59375 0.125 3.25 0.4375 2.9375C0.71875 2.65625 1.0625 2.5 1.5 2.5H10.4375C10.5938 2.5 10.7188 2.59375 10.7812 2.75C10.8438 2.90625 10.8125 3.03125 10.6875 3.125L9.4375 4.40625C9.375 4.46875 9.28125 4.5 9.1875 4.5H2V14.5H12V11.3125Z" fill="white"/>
</svg>
