<svg width="16" height="17" viewBox="0 0 16 17" fill="none" xmlns="http://www.w3.org/2000/svg">
<path d="M15.7812 14.3438C15.9062 14.5 16 14.6875 16 14.875C16 15.0938 15.9062 15.2812 15.7812 15.4062L14.9062 16.2812C14.75 16.4375 14.5625 16.5 14.375 16.5C14.1562 16.5 13.9688 16.4375 13.8438 16.2812L10.7188 13.1562C10.5625 13.0312 10.5 12.8438 10.5 12.625V12.125C9.3125 13.0625 8 13.5 6.5 13.5C5.3125 13.5 4.21875 13.2188 3.21875 12.625C2.21875 12.0625 1.4375 11.2812 0.875 10.2812C0.28125 9.28125 0 8.1875 0 7C0 5.8125 0.28125 4.75 0.875 3.75C1.4375 2.75 2.21875 1.96875 3.21875 1.375C4.21875 0.8125 5.3125 0.5 6.5 0.5C7.6875 0.5 8.75 0.8125 9.75 1.375C10.75 1.96875 11.5312 2.75 12.125 3.75C12.6875 4.75 13 5.8125 13 7C13 8.5 12.5312 9.84375 11.625 11H12.125C12.3125 11 12.5 11.0938 12.6562 11.2188L15.7812 14.3438ZM6.5 11C7.21875 11 7.875 10.8438 8.5 10.4688C9.125 10.125 9.59375 9.65625 9.96875 9.03125C10.3125 8.40625 10.5 7.75 10.5 7C10.5 6.28125 10.3125 5.625 9.96875 5C9.59375 4.375 9.125 3.90625 8.5 3.53125C7.875 3.1875 7.21875 3 6.5 3C5.75 3 5.09375 3.1875 4.46875 3.53125C3.84375 3.90625 3.375 4.375 3.03125 5C2.65625 5.625 2.5 6.28125 2.5 7C2.5 7.75 2.65625 8.40625 3.03125 9.03125C3.375 9.65625 3.84375 10.125 4.46875 10.4688C5.09375 10.8438 5.75 11 6.5 11Z" fill="black"/>
</svg>
