<svg width="16" height="17" viewBox="0 0 16 17" fill="none" xmlns="http://www.w3.org/2000/svg">
<path d="M3 5.5C3 6.40625 3.21875 7.25 3.65625 8C4.09375 8.78125 4.71875 9.40625 5.5 9.84375C6.25 10.2812 7.09375 10.5 8 10.5C8.875 10.5 9.71875 10.2812 10.5 9.84375C11.25 9.40625 11.875 8.78125 12.3125 8C12.75 7.25 13 6.40625 13 5.5C13 4.625 12.75 3.78125 12.3125 3C11.875 2.25 11.25 1.625 10.5 1.1875C9.71875 0.75 8.875 0.5 8 0.5C7.09375 0.5 6.25 0.75 5.5 1.1875C4.71875 1.625 4.09375 2.25 3.65625 3C3.21875 3.78125 3 4.625 3 5.5ZM12.5 11.5C13.125 11.5 13.6875 11.6562 14.25 11.9688C14.7812 12.2812 15.2188 12.7188 15.5312 13.25C15.8438 13.8125 16 14.375 16 15V15.75C16 15.9688 15.9062 16.1562 15.7812 16.2812C15.625 16.4375 15.4375 16.5 15.25 16.5H0.75C0.53125 16.5 0.34375 16.4375 0.21875 16.2812C0.0625 16.1562 0 15.9688 0 15.75V15C0 14.375 0.15625 13.8125 0.46875 13.25C0.78125 12.7188 1.1875 12.2812 1.75 11.9688C2.28125 11.6562 2.875 11.5 3.5 11.5H4.40625C5.5 12.1875 6.6875 12.5 8 12.5C9.28125 12.5 10.4688 12.1875 11.5938 11.5H12.5Z" fill="black"/>
</svg>
